<?xml version="1.0" encoding="UTF-8" standalone="no"?>
<!DOCTYPE svg PUBLIC "-//W3C//DTD SVG 1.1//EN"
 "http://www.w3.org/Graphics/SVG/1.1/DTD/svg11.dtd">
<!-- Generated by graphviz version 2.38.0 (20140413.2041)
 -->
<!-- Title: g Pages: 1 -->
<svg width="166pt" height="218pt"
 viewBox="0.00 0.00 166.00 218.00" xmlns="http://www.w3.org/2000/svg" xmlns:xlink="http://www.w3.org/1999/xlink">
<g id="graph0" class="graph" transform="scale(1 1) rotate(0) translate(4 214)">
<title>g</title>
<polygon fill="white" stroke="none" points="-4,4 -4,-214 162,-214 162,4 -4,4"/>
<!-- 0 -->
<g id="node1" class="node"><title>0</title>
<ellipse fill="none" stroke="black" cx="84" cy="-192" rx="18" ry="18"/>
<text text-anchor="middle" x="84" y="-188.3" font-family="Times,serif" font-size="14.00">0</text>
</g>
<!-- 0&#45;&gt;0 -->
<g id="edge1" class="edge"><title>0&#45;&gt;0</title>
<path fill="none" stroke="black" d="M101.782,-195.775C111.315,-196.417 120,-195.158 120,-192 120,-190.075 116.775,-188.856 112.098,-188.343"/>
<polygon fill="black" stroke="black" points="111.821,-184.84 101.782,-188.225 111.741,-191.839 111.821,-184.84"/>
<text text-anchor="middle" x="125" y="-188.3" font-family="Times,serif" font-size="14.00">A</text>
</g>
<!-- 0&#45;&gt;0 -->
<g id="edge3" class="edge"><title>0&#45;&gt;0</title>
<path fill="none" stroke="black" d="M101.142,-198.145C118.585,-201.759 138,-199.711 138,-192 138,-185.795 125.428,-183.257 111.429,-184.386"/>
<polygon fill="black" stroke="black" points="110.546,-180.976 101.142,-185.855 111.536,-187.906 110.546,-180.976"/>
<text text-anchor="middle" x="143" y="-188.3" font-family="Times,serif" font-size="14.00">C</text>
</g>
<!-- 1 -->
<g id="node2" class="node"><title>1</title>
<ellipse fill="none" stroke="black" cx="18" cy="-105" rx="18" ry="18"/>
<text text-anchor="middle" x="18" y="-101.3" font-family="Times,serif" font-size="14.00">1</text>
</g>
<!-- 0&#45;&gt;1 -->
<g id="edge2" class="edge"><title>0&#45;&gt;1</title>
<path fill="none" stroke="black" d="M68.1975,-182.416C58.083,-176.228 45.3396,-167.04 37,-156 31.8052,-149.123 27.8797,-140.66 24.986,-132.666"/>
<polygon fill="black" stroke="black" points="28.2521,-131.389 21.8546,-122.944 21.5892,-133.536 28.2521,-131.389"/>
<text text-anchor="middle" x="42" y="-144.8" font-family="Times,serif" font-size="14.00">B</text>
</g>
<!-- 1&#45;&gt;0 -->
<g id="edge6" class="edge"><title>1&#45;&gt;0</title>
<path fill="none" stroke="black" d="M29.19,-119.156C34.6478,-125.661 41.2579,-133.67 47,-141 53.9922,-149.926 61.473,-159.942 67.8654,-168.651"/>
<polygon fill="black" stroke="black" points="65.1155,-170.82 73.8366,-176.836 70.7707,-166.695 65.1155,-170.82"/>
<text text-anchor="middle" x="63" y="-144.8" font-family="Times,serif" font-size="14.00">C</text>
</g>
<!-- 1&#45;&gt;1 -->
<g id="edge5" class="edge"><title>1&#45;&gt;1</title>
<path fill="none" stroke="black" d="M34.6641,-112.383C44.625,-114.023 54,-111.562 54,-105 54,-100.796 50.1525,-98.2751 44.7682,-97.4375"/>
<polygon fill="black" stroke="black" points="44.6002,-93.9399 34.6641,-97.6172 44.7247,-100.939 44.6002,-93.9399"/>
<text text-anchor="middle" x="59" y="-101.3" font-family="Times,serif" font-size="14.00">B</text>
</g>
<!-- 2 -->
<g id="node3" class="node"><title>2</title>
<ellipse fill="none" stroke="black" cx="84" cy="-18" rx="18" ry="18"/>
<text text-anchor="middle" x="84" y="-14.3" font-family="Times,serif" font-size="14.00">2</text>
</g>
<!-- 1&#45;&gt;2 -->
<g id="edge4" class="edge"><title>1&#45;&gt;2</title>
<path fill="none" stroke="black" d="M21.8546,-87.0559C24.7912,-76.7687 29.6118,-63.7809 37,-54 43.1244,-45.8922 51.6238,-38.7834 59.7129,-33.1283"/>
<polygon fill="black" stroke="black" points="61.741,-35.9841 68.1975,-27.5839 57.9118,-30.1243 61.741,-35.9841"/>
<text text-anchor="middle" x="42" y="-57.8" font-family="Times,serif" font-size="14.00">A</text>
</g>
<!-- 2&#45;&gt;0 -->
<g id="edge7" class="edge"><title>2&#45;&gt;0</title>
<path fill="none" stroke="black" d="M84,-36.0516C84,-65.8802 84,-127.764 84,-163.643"/>
<polygon fill="black" stroke="black" points="80.5001,-163.879 84,-173.879 87.5001,-163.879 80.5001,-163.879"/>
<text text-anchor="middle" x="89" y="-101.3" font-family="Times,serif" font-size="14.00">A</text>
</g>
<!-- 2&#45;&gt;0 -->
<g id="edge9" class="edge"><title>2&#45;&gt;0</title>
<path fill="none" stroke="black" d="M91.733,-34.6425C94.2587,-40.5573 96.7376,-47.4451 98,-54 106.573,-98.5154 106.573,-111.485 98,-156 97.3688,-159.277 96.4335,-162.638 95.3403,-165.919"/>
<polygon fill="black" stroke="black" points="92.0336,-164.767 91.733,-175.358 98.5724,-167.266 92.0336,-164.767"/>
<text text-anchor="middle" x="109" y="-101.3" font-family="Times,serif" font-size="14.00">C</text>
</g>
<!-- 2&#45;&gt;1 -->
<g id="edge8" class="edge"><title>2&#45;&gt;1</title>
<path fill="none" stroke="black" d="M73.8366,-33.1637C66.5146,-43.2606 56.3229,-57.0984 47,-69 43.4112,-73.5815 39.4833,-78.428 35.7096,-83.0066"/>
<polygon fill="black" stroke="black" points="32.8946,-80.9177 29.19,-90.8437 38.276,-85.3944 32.8946,-80.9177"/>
<text text-anchor="middle" x="63" y="-57.8" font-family="Times,serif" font-size="14.00">B</text>
</g>
</g>
</svg>
