<?xml version="1.0" encoding="UTF-8" standalone="no"?>
<!DOCTYPE svg PUBLIC "-//W3C//DTD SVG 1.1//EN"
 "http://www.w3.org/Graphics/SVG/1.1/DTD/svg11.dtd">
<!-- Generated by graphviz version 2.38.0 (20140413.2041)
 -->
<!-- Title: g Pages: 1 -->
<svg width="266pt" height="218pt"
 viewBox="0.00 0.00 266.00 218.00" xmlns="http://www.w3.org/2000/svg" xmlns:xlink="http://www.w3.org/1999/xlink">
<g id="graph0" class="graph" transform="scale(1 1) rotate(0) translate(4 214)">
<title>g</title>
<polygon fill="white" stroke="none" points="-4,4 -4,-214 262,-214 262,4 -4,4"/>
<!-- 0 -->
<g id="node1" class="node"><title>0</title>
<ellipse fill="none" stroke="black" cx="156" cy="-192" rx="18" ry="18"/>
<text text-anchor="middle" x="156" y="-188.3" font-family="Times,serif" font-size="14.00">0</text>
</g>
<!-- 1 -->
<g id="node2" class="node"><title>1</title>
<ellipse fill="none" stroke="black" cx="100" cy="-105" rx="18" ry="18"/>
<text text-anchor="middle" x="100" y="-101.3" font-family="Times,serif" font-size="14.00">1</text>
</g>
<!-- 0&#45;&gt;1 -->
<g id="edge1" class="edge"><title>0&#45;&gt;1</title>
<path fill="none" stroke="black" d="M146.088,-176.765C141.722,-170.438 136.558,-162.879 132,-156 126.231,-147.293 120.014,-137.644 114.609,-129.164"/>
<polygon fill="black" stroke="black" points="117.436,-127.086 109.122,-120.519 111.526,-130.838 117.436,-127.086"/>
<text text-anchor="middle" x="137" y="-144.8" font-family="Times,serif" font-size="14.00">A</text>
</g>
<!-- 3 -->
<g id="node3" class="node"><title>3</title>
<ellipse fill="none" stroke="black" cx="156" cy="-18" rx="18" ry="18"/>
<text text-anchor="middle" x="156" y="-14.3" font-family="Times,serif" font-size="14.00">3</text>
</g>
<!-- 0&#45;&gt;3 -->
<g id="edge2" class="edge"><title>0&#45;&gt;3</title>
<path fill="none" stroke="black" d="M156,-173.879C156,-144.001 156,-82.1129 156,-46.2736"/>
<polygon fill="black" stroke="black" points="159.5,-46.0516 156,-36.0516 152.5,-46.0516 159.5,-46.0516"/>
<text text-anchor="middle" x="161" y="-101.3" font-family="Times,serif" font-size="14.00">B</text>
</g>
<!-- 0&#45;&gt;3 -->
<g id="edge3" class="edge"><title>0&#45;&gt;3</title>
<path fill="none" stroke="black" d="M163.733,-175.358C166.259,-169.443 168.738,-162.555 170,-156 178.573,-111.485 178.573,-98.5154 170,-54 169.369,-50.7225 168.433,-47.3619 167.34,-44.0812"/>
<polygon fill="black" stroke="black" points="170.572,-42.7341 163.733,-34.6425 164.034,-45.233 170.572,-42.7341"/>
<text text-anchor="middle" x="181" y="-101.3" font-family="Times,serif" font-size="14.00">C</text>
</g>
<!-- 1&#45;&gt;3 -->
<g id="edge4" class="edge"><title>1&#45;&gt;3</title>
<path fill="none" stroke="black" d="M95.549,-87.1911C93.7957,-76.9548 93.3534,-63.973 99,-54 106.661,-40.4691 115.753,-44.1429 129,-36 130.115,-35.3147 131.254,-34.6111 132.403,-33.8984"/>
<polygon fill="black" stroke="black" points="134.558,-36.6792 141.181,-28.4103 130.847,-30.7438 134.558,-36.6792"/>
<text text-anchor="middle" x="104" y="-57.8" font-family="Times,serif" font-size="14.00">A</text>
</g>
<!-- 1&#45;&gt;3 -->
<g id="edge6" class="edge"><title>1&#45;&gt;3</title>
<path fill="none" stroke="black" d="M109.122,-89.4806C115.459,-79.4591 124.144,-65.8559 132,-54 134.635,-50.0232 137.473,-45.819 140.241,-41.7569"/>
<polygon fill="black" stroke="black" points="143.317,-43.4607 146.088,-33.2347 137.545,-39.5006 143.317,-43.4607"/>
<text text-anchor="middle" x="137" y="-57.8" font-family="Times,serif" font-size="14.00">C</text>
</g>
<!-- 2 -->
<g id="node4" class="node"><title>2</title>
<ellipse fill="none" stroke="black" cx="18" cy="-18" rx="18" ry="18"/>
<text text-anchor="middle" x="18" y="-14.3" font-family="Times,serif" font-size="14.00">2</text>
</g>
<!-- 1&#45;&gt;2 -->
<g id="edge5" class="edge"><title>1&#45;&gt;2</title>
<path fill="none" stroke="black" d="M87.9006,-91.458C74.5773,-77.6472 52.9698,-55.2492 37.3014,-39.0075"/>
<polygon fill="black" stroke="black" points="39.6109,-36.3604 30.149,-31.5935 34.573,-41.2205 39.6109,-36.3604"/>
<text text-anchor="middle" x="68" y="-57.8" font-family="Times,serif" font-size="14.00">B</text>
</g>
<!-- 3&#45;&gt;3 -->
<g id="edge10" class="edge"><title>3&#45;&gt;3</title>
<path fill="none" stroke="black" d="M174.153,-20.5327C183.539,-20.9224 192,-20.0781 192,-18 192,-16.7336 188.858,-15.9255 184.28,-15.5755"/>
<polygon fill="black" stroke="black" points="184.19,-12.0744 174.153,-15.4673 184.115,-19.074 184.19,-12.0744"/>
<text text-anchor="middle" x="197" y="-14.3" font-family="Times,serif" font-size="14.00">A</text>
</g>
<!-- 3&#45;&gt;3 -->
<g id="edge11" class="edge"><title>3&#45;&gt;3</title>
<path fill="none" stroke="black" d="M173.699,-22.1721C190.996,-24.4766 210,-23.0859 210,-18 210,-13.9074 197.694,-12.2076 183.875,-12.9005"/>
<polygon fill="black" stroke="black" points="183.34,-9.43465 173.699,-13.8279 183.976,-16.4058 183.34,-9.43465"/>
<text text-anchor="middle" x="215" y="-14.3" font-family="Times,serif" font-size="14.00">B</text>
</g>
<!-- 3&#45;&gt;3 -->
<g id="edge12" class="edge"><title>3&#45;&gt;3</title>
<path fill="none" stroke="black" d="M173.353,-23.1713C197.818,-28.0499 228,-26.3262 228,-18 228,-10.7796 205.302,-8.52439 183.319,-11.2342"/>
<polygon fill="black" stroke="black" points="182.675,-7.79274 173.353,-12.8287 183.781,-14.7048 182.675,-7.79274"/>
<text text-anchor="middle" x="233" y="-14.3" font-family="Times,serif" font-size="14.00">C</text>
</g>
<!-- 2&#45;&gt;2 -->
<g id="edge7" class="edge"><title>2&#45;&gt;2</title>
<path fill="none" stroke="black" d="M36.1527,-20.5327C45.5391,-20.9224 54,-20.0781 54,-18 54,-16.7336 50.8581,-15.9255 46.2796,-15.5755"/>
<polygon fill="black" stroke="black" points="46.1896,-12.0744 36.1527,-15.4673 46.1147,-19.074 46.1896,-12.0744"/>
<text text-anchor="middle" x="59" y="-14.3" font-family="Times,serif" font-size="14.00">A</text>
</g>
<!-- 2&#45;&gt;2 -->
<g id="edge8" class="edge"><title>2&#45;&gt;2</title>
<path fill="none" stroke="black" d="M35.6991,-22.1721C52.9958,-24.4766 72,-23.0859 72,-18 72,-13.9074 59.6944,-12.2076 45.875,-12.9005"/>
<polygon fill="black" stroke="black" points="45.3401,-9.43465 35.6991,-13.8279 45.9755,-16.4058 45.3401,-9.43465"/>
<text text-anchor="middle" x="77" y="-14.3" font-family="Times,serif" font-size="14.00">B</text>
</g>
<!-- 2&#45;&gt;2 -->
<g id="edge9" class="edge"><title>2&#45;&gt;2</title>
<path fill="none" stroke="black" d="M35.3534,-23.1713C59.8176,-28.0499 90,-26.3262 90,-18 90,-10.7796 67.3024,-8.52439 45.3194,-11.2342"/>
<polygon fill="black" stroke="black" points="44.6749,-7.79274 35.3534,-12.8287 45.7808,-14.7048 44.6749,-7.79274"/>
<text text-anchor="middle" x="95" y="-14.3" font-family="Times,serif" font-size="14.00">C</text>
</g>
</g>
</svg>
