<?xml version="1.0" encoding="UTF-8" standalone="no"?>
<!DOCTYPE svg PUBLIC "-//W3C//DTD SVG 1.1//EN"
 "http://www.w3.org/Graphics/SVG/1.1/DTD/svg11.dtd">
<!-- Generated by graphviz version 2.40.1 (20161225.0304)
 -->
<!-- Title: g Pages: 1 -->
<svg width="163pt" height="218pt"
 viewBox="0.00 0.00 163.00 218.00" xmlns="http://www.w3.org/2000/svg" xmlns:xlink="http://www.w3.org/1999/xlink">
<g id="graph0" class="graph" transform="scale(1 1) rotate(0) translate(4 214)">
<title>g</title>
<polygon fill="#ffffff" stroke="transparent" points="-4,4 -4,-214 159,-214 159,4 -4,4"/>
<!-- 0 -->
<g id="node1" class="node">
<title>0</title>
<ellipse fill="none" stroke="#000000" cx="81" cy="-192" rx="18" ry="18"/>
<text text-anchor="middle" x="81" y="-188.3" font-family="Times,serif" font-size="14.00" fill="#000000">0</text>
</g>
<!-- 0&#45;&gt;0 -->
<g id="edge1" class="edge">
<title>0&#45;&gt;0</title>
<path fill="none" stroke="#000000" d="M98.7817,-195.775C108.3149,-196.4165 117,-195.1582 117,-192 117,-190.0755 113.7749,-188.8564 109.0981,-188.3429"/>
<polygon fill="#000000" stroke="#000000" points="108.8211,-184.8396 98.7817,-188.225 108.741,-191.8391 108.8211,-184.8396"/>
<text text-anchor="middle" x="122" y="-188.3" font-family="Times,serif" font-size="14.00" fill="#000000">A</text>
</g>
<!-- 0&#45;&gt;0 -->
<g id="edge3" class="edge">
<title>0&#45;&gt;0</title>
<path fill="none" stroke="#000000" d="M98.1418,-198.1447C115.585,-201.7592 135,-199.7109 135,-192 135,-185.7951 122.4283,-183.2569 108.4287,-184.3855"/>
<polygon fill="#000000" stroke="#000000" points="107.5461,-180.976 98.1418,-185.8553 108.5363,-187.9056 107.5461,-180.976"/>
<text text-anchor="middle" x="140" y="-188.3" font-family="Times,serif" font-size="14.00" fill="#000000">C</text>
</g>
<!-- 1 -->
<g id="node2" class="node">
<title>1</title>
<ellipse fill="none" stroke="#000000" cx="18" cy="-105" rx="18" ry="18"/>
<text text-anchor="middle" x="18" y="-101.3" font-family="Times,serif" font-size="14.00" fill="#000000">1</text>
</g>
<!-- 0&#45;&gt;1 -->
<g id="edge2" class="edge">
<title>0&#45;&gt;1</title>
<path fill="none" stroke="#000000" d="M65.3653,-182.3023C56.0402,-175.8372 44.5788,-166.597 37,-156 31.9759,-148.975 28.1172,-140.4648 25.2323,-132.4254"/>
<polygon fill="#000000" stroke="#000000" points="28.4791,-131.0889 22.0845,-122.6414 21.8155,-133.2329 28.4791,-131.0889"/>
<text text-anchor="middle" x="42" y="-144.8" font-family="Times,serif" font-size="14.00" fill="#000000">B</text>
</g>
<!-- 1&#45;&gt;0 -->
<g id="edge6" class="edge">
<title>1&#45;&gt;0</title>
<path fill="none" stroke="#000000" d="M29.5914,-118.7896C35.0215,-125.399 41.4922,-133.4943 47,-141 53.3546,-149.6597 59.9839,-159.4192 65.6833,-168.0649"/>
<polygon fill="#000000" stroke="#000000" points="62.8413,-170.1144 71.2356,-176.5787 68.7047,-166.2906 62.8413,-170.1144"/>
<text text-anchor="middle" x="61" y="-144.8" font-family="Times,serif" font-size="14.00" fill="#000000">C</text>
</g>
<!-- 1&#45;&gt;1 -->
<g id="edge5" class="edge">
<title>1&#45;&gt;1</title>
<path fill="none" stroke="#000000" d="M34.6641,-112.3828C44.625,-114.0234 54,-111.5625 54,-105 54,-100.7959 50.1525,-98.2751 44.7682,-97.4375"/>
<polygon fill="#000000" stroke="#000000" points="44.6002,-93.9399 34.6641,-97.6172 44.7247,-100.9388 44.6002,-93.9399"/>
<text text-anchor="middle" x="59" y="-101.3" font-family="Times,serif" font-size="14.00" fill="#000000">B</text>
</g>
<!-- 2 -->
<g id="node3" class="node">
<title>2</title>
<ellipse fill="none" stroke="#000000" cx="81" cy="-18" rx="18" ry="18"/>
<text text-anchor="middle" x="81" y="-14.3" font-family="Times,serif" font-size="14.00" fill="#000000">2</text>
</g>
<!-- 1&#45;&gt;2 -->
<g id="edge4" class="edge">
<title>1&#45;&gt;2</title>
<path fill="none" stroke="#000000" d="M22.0845,-87.3586C25.0666,-76.9865 29.8546,-63.9911 37,-54 42.4473,-46.3834 49.9003,-39.4677 57.1242,-33.7796"/>
<polygon fill="#000000" stroke="#000000" points="59.3975,-36.4519 65.3653,-27.6977 55.2409,-30.8196 59.3975,-36.4519"/>
<text text-anchor="middle" x="42" y="-57.8" font-family="Times,serif" font-size="14.00" fill="#000000">A</text>
</g>
<!-- 2&#45;&gt;0 -->
<g id="edge7" class="edge">
<title>2&#45;&gt;0</title>
<path fill="none" stroke="#000000" d="M81,-36.0471C81,-66.2455 81,-127.2509 81,-163.3619"/>
<polygon fill="#000000" stroke="#000000" points="77.5001,-163.7078 81,-173.7078 84.5001,-163.7079 77.5001,-163.7078"/>
<text text-anchor="middle" x="86" y="-101.3" font-family="Times,serif" font-size="14.00" fill="#000000">A</text>
</g>
<!-- 2&#45;&gt;0 -->
<g id="edge9" class="edge">
<title>2&#45;&gt;0</title>
<path fill="none" stroke="#000000" d="M88.8828,-34.4696C91.3568,-40.4741 93.7635,-47.409 95,-54 103.3588,-98.5561 103.3588,-111.4439 95,-156 94.3818,-159.2955 93.471,-162.677 92.4055,-165.9852"/>
<polygon fill="#000000" stroke="#000000" points="89.0616,-164.9371 88.8828,-175.5304 95.6286,-167.3607 89.0616,-164.9371"/>
<text text-anchor="middle" x="106" y="-101.3" font-family="Times,serif" font-size="14.00" fill="#000000">C</text>
</g>
<!-- 2&#45;&gt;1 -->
<g id="edge8" class="edge">
<title>2&#45;&gt;1</title>
<path fill="none" stroke="#000000" d="M71.2356,-33.4213C64.6226,-43.6678 55.562,-57.3322 47,-69 43.5576,-73.6911 39.7391,-78.6124 36.0336,-83.2574"/>
<polygon fill="#000000" stroke="#000000" points="33.1661,-81.2368 29.5914,-91.2104 38.6055,-85.6429 33.1661,-81.2368"/>
<text text-anchor="middle" x="61" y="-57.8" font-family="Times,serif" font-size="14.00" fill="#000000">B</text>
</g>
</g>
</svg>
