<?xml version="1.0" encoding="UTF-8" standalone="no"?>
<!DOCTYPE svg PUBLIC "-//W3C//DTD SVG 1.1//EN"
 "http://www.w3.org/Graphics/SVG/1.1/DTD/svg11.dtd">
<!-- Generated by graphviz version 2.40.1 (20161225.0304)
 -->
<!-- Title: g Pages: 1 -->
<svg width="128pt" height="218pt"
 viewBox="0.00 0.00 128.00 218.00" xmlns="http://www.w3.org/2000/svg" xmlns:xlink="http://www.w3.org/1999/xlink">
<g id="graph0" class="graph" transform="scale(1 1) rotate(0) translate(4 214)">
<title>g</title>
<polygon fill="#ffffff" stroke="transparent" points="-4,4 -4,-214 124,-214 124,4 -4,4"/>
<!-- 0 -->
<g id="node1" class="node">
<title>0</title>
<ellipse fill="none" stroke="#000000" cx="18" cy="-192" rx="18" ry="18"/>
<text text-anchor="middle" x="18" y="-188.3" font-family="Times,serif" font-size="14.00" fill="#000000">0</text>
</g>
<!-- 1 -->
<g id="node2" class="node">
<title>1</title>
<ellipse fill="none" stroke="#000000" cx="18" cy="-105" rx="18" ry="18"/>
<text text-anchor="middle" x="18" y="-101.3" font-family="Times,serif" font-size="14.00" fill="#000000">1</text>
</g>
<!-- 0&#45;&gt;1 -->
<g id="edge1" class="edge">
<title>0&#45;&gt;1</title>
<path fill="none" stroke="#000000" d="M18,-173.9735C18,-162.1918 18,-146.5607 18,-133.1581"/>
<polygon fill="#000000" stroke="#000000" points="21.5001,-133.0033 18,-123.0034 14.5001,-133.0034 21.5001,-133.0033"/>
<text text-anchor="middle" x="23" y="-144.8" font-family="Times,serif" font-size="14.00" fill="#000000">A</text>
</g>
<!-- 2 -->
<g id="node3" class="node">
<title>2</title>
<ellipse fill="none" stroke="#000000" cx="18" cy="-18" rx="18" ry="18"/>
<text text-anchor="middle" x="18" y="-14.3" font-family="Times,serif" font-size="14.00" fill="#000000">2</text>
</g>
<!-- 1&#45;&gt;2 -->
<g id="edge2" class="edge">
<title>1&#45;&gt;2</title>
<path fill="none" stroke="#000000" d="M18,-86.9735C18,-75.1918 18,-59.5607 18,-46.1581"/>
<polygon fill="#000000" stroke="#000000" points="21.5001,-46.0033 18,-36.0034 14.5001,-46.0034 21.5001,-46.0033"/>
<text text-anchor="middle" x="23" y="-57.8" font-family="Times,serif" font-size="14.00" fill="#000000">B</text>
</g>
<!-- 2&#45;&gt;2 -->
<g id="edge3" class="edge">
<title>2&#45;&gt;2</title>
<path fill="none" stroke="#000000" d="M36.1527,-20.5327C45.5391,-20.9224 54,-20.0781 54,-18 54,-16.7336 50.8581,-15.9255 46.2796,-15.5755"/>
<polygon fill="#000000" stroke="#000000" points="46.1896,-12.0744 36.1527,-15.4673 46.1147,-19.074 46.1896,-12.0744"/>
<text text-anchor="middle" x="59" y="-14.3" font-family="Times,serif" font-size="14.00" fill="#000000">A</text>
</g>
<!-- 2&#45;&gt;2 -->
<g id="edge4" class="edge">
<title>2&#45;&gt;2</title>
<path fill="none" stroke="#000000" d="M35.6991,-22.1721C52.9958,-24.4766 72,-23.0859 72,-18 72,-13.9074 59.6944,-12.2076 45.875,-12.9005"/>
<polygon fill="#000000" stroke="#000000" points="45.3401,-9.4346 35.6991,-13.8279 45.9755,-16.4058 45.3401,-9.4346"/>
<text text-anchor="middle" x="77" y="-14.3" font-family="Times,serif" font-size="14.00" fill="#000000">B</text>
</g>
<!-- 2&#45;&gt;2 -->
<g id="edge5" class="edge">
<title>2&#45;&gt;2</title>
<path fill="none" stroke="#000000" d="M35.3534,-23.1713C59.8176,-28.0499 90,-26.3262 90,-18 90,-10.7796 67.3024,-8.5244 45.3194,-11.2342"/>
<polygon fill="#000000" stroke="#000000" points="44.6749,-7.7927 35.3534,-12.8287 45.7808,-14.7048 44.6749,-7.7927"/>
<text text-anchor="middle" x="95" y="-14.3" font-family="Times,serif" font-size="14.00" fill="#000000">C</text>
</g>
</g>
</svg>
