<?xml version="1.0" encoding="UTF-8" standalone="no"?>
<!DOCTYPE svg PUBLIC "-//W3C//DTD SVG 1.1//EN"
 "http://www.w3.org/Graphics/SVG/1.1/DTD/svg11.dtd">
<!-- Generated by graphviz version 2.38.0 (20140413.2041)
 -->
<!-- Title: G Pages: 1 -->
<svg width="160pt" height="326pt"
 viewBox="0.00 0.00 160.00 326.00" xmlns="http://www.w3.org/2000/svg" xmlns:xlink="http://www.w3.org/1999/xlink">
<g id="graph0" class="graph" transform="scale(1 1) rotate(0) translate(4 322)">
<title>G</title>
<polygon fill="white" stroke="none" points="-4,4 -4,-322 156,-322 156,4 -4,4"/>
<!-- som0 -->
<g id="node1" class="node"><title>som0</title>
<ellipse fill="none" stroke="black" cx="73" cy="-300" rx="27" ry="18"/>
<text text-anchor="middle" x="73" y="-296.3" font-family="Times,serif" font-size="14.00">0</text>
</g>
<!-- som1 -->
<g id="node2" class="node"><title>som1</title>
<ellipse fill="none" stroke="black" cx="27" cy="-159" rx="27" ry="18"/>
<text text-anchor="middle" x="27" y="-155.3" font-family="Times,serif" font-size="14.00">1</text>
</g>
<!-- som0&#45;&gt;som1 -->
<g id="edge1" class="edge"><title>som0&#45;&gt;som1</title>
<path fill="none" stroke="black" d="M62.0975,-283.156C58.4731,-277.334 54.6821,-270.559 52,-264 41.7183,-238.856 35.0239,-208.489 31.1743,-187.078"/>
<polygon fill="black" stroke="black" points="34.5971,-186.329 29.4631,-177.062 27.6971,-187.508 34.5971,-186.329"/>
<text text-anchor="middle" x="55.5" y="-252.8" font-family="Times,serif" font-size="14.00">2</text>
</g>
<!-- som2 -->
<g id="node3" class="node"><title>som2</title>
<ellipse fill="none" stroke="black" cx="79" cy="-105" rx="27" ry="18"/>
<text text-anchor="middle" x="79" y="-101.3" font-family="Times,serif" font-size="14.00">2</text>
</g>
<!-- som0&#45;&gt;som2 -->
<g id="edge2" class="edge"><title>som0&#45;&gt;som2</title>
<path fill="none" stroke="black" d="M73.5325,-281.873C74.5754,-248.323 76.8951,-173.707 78.1517,-133.287"/>
<polygon fill="black" stroke="black" points="81.6562,-133.193 78.4687,-123.089 74.6596,-132.975 81.6562,-133.193"/>
<text text-anchor="middle" x="79.5" y="-209.3" font-family="Times,serif" font-size="14.00">4</text>
</g>
<!-- som3 -->
<g id="node4" class="node"><title>som3</title>
<ellipse fill="none" stroke="black" cx="125" cy="-213" rx="27" ry="18"/>
<text text-anchor="middle" x="125" y="-209.3" font-family="Times,serif" font-size="14.00">3</text>
</g>
<!-- som0&#45;&gt;som3 -->
<g id="edge3" class="edge"><title>som0&#45;&gt;som3</title>
<path fill="none" stroke="black" stroke-width="2" d="M82.7808,-283.012C90.4071,-270.546 101.133,-253.013 109.865,-238.739"/>
<polygon fill="black" stroke="black" stroke-width="2" points="113.03,-240.273 115.263,-229.916 107.059,-236.62 113.03,-240.273"/>
<text text-anchor="middle" x="105.5" y="-252.8" font-family="Times,serif" font-size="14.00">2</text>
</g>
<!-- som4 -->
<g id="node5" class="node"><title>som4</title>
<ellipse fill="none" stroke="black" cx="48" cy="-18" rx="27" ry="18"/>
<text text-anchor="middle" x="48" y="-14.3" font-family="Times,serif" font-size="14.00">4</text>
</g>
<!-- som1&#45;&gt;som4 -->
<g id="edge4" class="edge"><title>som1&#45;&gt;som4</title>
<path fill="none" stroke="black" d="M28.9151,-141.04C30.5978,-126.636 33.2078,-105.427 36,-87 38.0419,-73.5241 40.6371,-58.6054 42.8913,-46.1836"/>
<polygon fill="black" stroke="black" points="46.3959,-46.4773 44.762,-36.0092 39.5113,-45.2114 46.3959,-46.4773"/>
<text text-anchor="middle" x="39.5" y="-101.3" font-family="Times,serif" font-size="14.00">1</text>
</g>
<!-- som2&#45;&gt;som4 -->
<g id="edge5" class="edge"><title>som2&#45;&gt;som4</title>
<path fill="none" stroke="black" stroke-width="2" d="M72.8754,-87.2067C68.5021,-75.2156 62.5339,-58.8511 57.5396,-45.1571"/>
<polygon fill="black" stroke="black" stroke-width="2" points="60.8264,-43.9539 54.1119,-35.7584 54.2501,-46.3523 60.8264,-43.9539"/>
<text text-anchor="middle" x="68.5" y="-57.8" font-family="Times,serif" font-size="14.00">4</text>
</g>
<!-- som3&#45;&gt;som2 -->
<g id="edge6" class="edge"><title>som3&#45;&gt;som2</title>
<path fill="none" stroke="black" stroke-width="2" d="M117.812,-195.438C110.42,-178.402 98.8024,-151.632 90.2025,-131.815"/>
<polygon fill="black" stroke="black" stroke-width="2" points="93.3287,-130.226 86.137,-122.446 86.9073,-133.013 93.3287,-130.226"/>
<text text-anchor="middle" x="111.5" y="-155.3" font-family="Times,serif" font-size="14.00">1</text>
</g>
</g>
</svg>
